<?xml version="1.0" standalone="no"?>
<!DOCTYPE svg PUBLIC "-//W3C//DTD SVG 20010904//EN"
 "http://www.w3.org/TR/2001/REC-SVG-20010904/DTD/svg10.dtd">
<svg version="1.0" xmlns="http://www.w3.org/2000/svg"
 width="385.000000pt" height="385.000000pt" viewBox="0 0 385.000000 385.000000"
 preserveAspectRatio="xMidYMid meet">

<g transform="translate(0.000000,385.000000) scale(0.100000,-0.100000)"
fill="#000000" stroke="none">
<path d="M2457 2749 c-450 -66 -774 -298 -971 -695 -78 -157 -126 -304 -170
-524 -19 -94 -66 -405 -66 -436 0 -2 36 -4 80 -4 79 0 80 0 85 28 31 149 70
237 139 310 69 74 114 97 248 131 64 17 145 44 180 62 181 90 322 240 392 415
l27 67 -41 42 -42 42 57 64 c67 75 138 215 190 372 19 60 35 115 35 123 0 16
-47 17 -143 3z m-87 -189 c0 -6 -16 -42 -35 -80 -23 -45 -72 -111 -140 -187
l-105 -118 61 -57 62 -57 -34 -56 c-47 -79 -159 -182 -246 -228 -39 -20 -116
-48 -171 -62 -108 -27 -178 -54 -224 -86 -16 -12 -32 -18 -35 -15 -11 11 76
260 127 364 61 126 112 202 193 289 119 127 278 225 452 277 94 29 95 29 95
16z"/>
</g>
</svg>
